<mxfile host="app.diagrams.net" modified="2021-08-08T17:36:04.660Z" agent="5.0 (X11; Linux x86_64) AppleWebKit/537.36 (KHTML, like Gecko) Chrome/92.0.4515.107 Safari/537.36" etag="r1pZWM_MDUbHqFjBnQj5" version="14.9.5" type="github">
  <diagram id="C5RBs43oDa-KdzZeNtuy" name="Page-1">
    <mxGraphModel dx="599" dy="305" grid="1" gridSize="10" guides="1" tooltips="1" connect="1" arrows="1" fold="1" page="1" pageScale="1" pageWidth="827" pageHeight="1169" math="0" shadow="0">
      <root>
        <mxCell id="WIyWlLk6GJQsqaUBKTNV-0" />
        <mxCell id="WIyWlLk6GJQsqaUBKTNV-1" parent="WIyWlLk6GJQsqaUBKTNV-0" />
        <mxCell id="zkfFHV4jXpPFQw0GAbJ--17" value="Todos" style="swimlane;fontStyle=1;align=center;verticalAlign=top;childLayout=stackLayout;horizontal=1;startSize=26;horizontalStack=0;resizeParent=1;resizeLast=0;collapsible=1;marginBottom=0;rounded=0;shadow=0;strokeWidth=1;" parent="WIyWlLk6GJQsqaUBKTNV-1" vertex="1">
          <mxGeometry x="470" y="190" width="260" height="220" as="geometry">
            <mxRectangle x="550" y="140" width="160" height="26" as="alternateBounds" />
          </mxGeometry>
        </mxCell>
        <mxCell id="2CGqayd7jsH6TsEi3nI5-50" value="" style="endArrow=none;html=1;" parent="zkfFHV4jXpPFQw0GAbJ--17" edge="1">
          <mxGeometry width="50" height="50" relative="1" as="geometry">
            <mxPoint y="60" as="sourcePoint" />
            <mxPoint x="260" y="60" as="targetPoint" />
          </mxGeometry>
        </mxCell>
        <mxCell id="2CGqayd7jsH6TsEi3nI5-51" value="" style="endArrow=none;html=1;" parent="zkfFHV4jXpPFQw0GAbJ--17" edge="1">
          <mxGeometry width="50" height="50" relative="1" as="geometry">
            <mxPoint y="94" as="sourcePoint" />
            <mxPoint x="260" y="94" as="targetPoint" />
          </mxGeometry>
        </mxCell>
        <mxCell id="2CGqayd7jsH6TsEi3nI5-58" value="" style="endArrow=none;html=1;" parent="zkfFHV4jXpPFQw0GAbJ--17" edge="1">
          <mxGeometry width="50" height="50" relative="1" as="geometry">
            <mxPoint y="130" as="sourcePoint" />
            <mxPoint x="260" y="130" as="targetPoint" />
          </mxGeometry>
        </mxCell>
        <mxCell id="2CGqayd7jsH6TsEi3nI5-0" value="Users" style="shape=table;startSize=30;container=1;collapsible=1;childLayout=tableLayout;fixedRows=1;rowLines=0;fontStyle=1;align=center;resizeLast=1;" parent="WIyWlLk6GJQsqaUBKTNV-1" vertex="1">
          <mxGeometry x="80" y="190" width="310" height="210" as="geometry" />
        </mxCell>
        <mxCell id="2CGqayd7jsH6TsEi3nI5-1" value="" style="shape=partialRectangle;collapsible=0;dropTarget=0;pointerEvents=0;fillColor=none;top=0;left=0;bottom=1;right=0;points=[[0,0.5],[1,0.5]];portConstraint=eastwest;" parent="2CGqayd7jsH6TsEi3nI5-0" vertex="1">
          <mxGeometry y="30" width="310" height="30" as="geometry" />
        </mxCell>
        <mxCell id="2CGqayd7jsH6TsEi3nI5-2" value="PK" style="shape=partialRectangle;connectable=0;fillColor=none;top=0;left=0;bottom=0;right=0;fontStyle=1;overflow=hidden;" parent="2CGqayd7jsH6TsEi3nI5-1" vertex="1">
          <mxGeometry width="30" height="30" as="geometry" />
        </mxCell>
        <mxCell id="2CGqayd7jsH6TsEi3nI5-3" value="Â  id_user (int - auto increment - unsigned)" style="shape=partialRectangle;connectable=0;fillColor=none;top=0;left=0;bottom=0;right=0;align=left;spacingLeft=6;fontStyle=1;overflow=hidden;" parent="2CGqayd7jsH6TsEi3nI5-1" vertex="1">
          <mxGeometry x="30" width="280" height="30" as="geometry" />
        </mxCell>
        <mxCell id="2CGqayd7jsH6TsEi3nI5-4" value="" style="shape=partialRectangle;collapsible=0;dropTarget=0;pointerEvents=0;fillColor=none;top=0;left=0;bottom=0;right=0;points=[[0,0.5],[1,0.5]];portConstraint=eastwest;" parent="2CGqayd7jsH6TsEi3nI5-0" vertex="1">
          <mxGeometry y="60" width="310" height="30" as="geometry" />
        </mxCell>
        <mxCell id="2CGqayd7jsH6TsEi3nI5-5" value="" style="shape=partialRectangle;connectable=0;fillColor=none;top=0;left=0;bottom=0;right=0;editable=1;overflow=hidden;" parent="2CGqayd7jsH6TsEi3nI5-4" vertex="1">
          <mxGeometry width="30" height="30" as="geometry" />
        </mxCell>
        <mxCell id="2CGqayd7jsH6TsEi3nI5-6" value="" style="shape=partialRectangle;connectable=0;fillColor=none;top=0;left=0;bottom=0;right=0;align=left;spacingLeft=6;overflow=hidden;" parent="2CGqayd7jsH6TsEi3nI5-4" vertex="1">
          <mxGeometry x="30" width="280" height="30" as="geometry" />
        </mxCell>
        <mxCell id="2CGqayd7jsH6TsEi3nI5-7" value="" style="shape=partialRectangle;collapsible=0;dropTarget=0;pointerEvents=0;fillColor=none;top=0;left=0;bottom=0;right=0;points=[[0,0.5],[1,0.5]];portConstraint=eastwest;" parent="2CGqayd7jsH6TsEi3nI5-0" vertex="1">
          <mxGeometry y="90" width="310" height="30" as="geometry" />
        </mxCell>
        <mxCell id="2CGqayd7jsH6TsEi3nI5-8" value="" style="shape=partialRectangle;connectable=0;fillColor=none;top=0;left=0;bottom=0;right=0;editable=1;overflow=hidden;" parent="2CGqayd7jsH6TsEi3nI5-7" vertex="1">
          <mxGeometry width="30" height="30" as="geometry" />
        </mxCell>
        <mxCell id="2CGqayd7jsH6TsEi3nI5-9" value="" style="shape=partialRectangle;connectable=0;fillColor=none;top=0;left=0;bottom=0;right=0;align=left;spacingLeft=6;overflow=hidden;" parent="2CGqayd7jsH6TsEi3nI5-7" vertex="1">
          <mxGeometry x="30" width="280" height="30" as="geometry" />
        </mxCell>
        <mxCell id="2CGqayd7jsH6TsEi3nI5-10" value="" style="shape=partialRectangle;collapsible=0;dropTarget=0;pointerEvents=0;fillColor=none;top=0;left=0;bottom=0;right=0;points=[[0,0.5],[1,0.5]];portConstraint=eastwest;" parent="2CGqayd7jsH6TsEi3nI5-0" vertex="1">
          <mxGeometry y="120" width="310" height="30" as="geometry" />
        </mxCell>
        <mxCell id="2CGqayd7jsH6TsEi3nI5-11" value="" style="shape=partialRectangle;connectable=0;fillColor=none;top=0;left=0;bottom=0;right=0;editable=1;overflow=hidden;" parent="2CGqayd7jsH6TsEi3nI5-10" vertex="1">
          <mxGeometry width="30" height="30" as="geometry" />
        </mxCell>
        <mxCell id="2CGqayd7jsH6TsEi3nI5-12" value="" style="shape=partialRectangle;connectable=0;fillColor=none;top=0;left=0;bottom=0;right=0;align=left;spacingLeft=6;overflow=hidden;" parent="2CGqayd7jsH6TsEi3nI5-10" vertex="1">
          <mxGeometry x="30" width="280" height="30" as="geometry" />
        </mxCell>
        <mxCell id="2CGqayd7jsH6TsEi3nI5-13" value="" style="shape=partialRectangle;collapsible=0;dropTarget=0;pointerEvents=0;fillColor=none;top=0;left=0;bottom=1;right=0;points=[[0,0.5],[1,0.5]];portConstraint=eastwest;" parent="WIyWlLk6GJQsqaUBKTNV-1" vertex="1">
          <mxGeometry x="80" y="250" width="310" height="30" as="geometry" />
        </mxCell>
        <mxCell id="2CGqayd7jsH6TsEi3nI5-14" value="" style="shape=partialRectangle;connectable=0;fillColor=none;top=0;left=0;bottom=0;right=0;fontStyle=1;overflow=hidden;" parent="2CGqayd7jsH6TsEi3nI5-13" vertex="1">
          <mxGeometry width="51.66666666666667" height="30" as="geometry" />
        </mxCell>
        <mxCell id="2CGqayd7jsH6TsEi3nI5-15" value="name (varchar(255) - not null)" style="shape=partialRectangle;connectable=0;fillColor=none;top=0;left=0;bottom=0;right=0;align=left;spacingLeft=6;fontStyle=1;overflow=hidden;" parent="2CGqayd7jsH6TsEi3nI5-13" vertex="1">
          <mxGeometry x="35.769230769230774" width="274.2307692307692" height="30" as="geometry" />
        </mxCell>
        <mxCell id="2CGqayd7jsH6TsEi3nI5-16" value="" style="shape=partialRectangle;collapsible=0;dropTarget=0;pointerEvents=0;fillColor=none;top=0;left=0;bottom=1;right=0;points=[[0,0.5],[1,0.5]];portConstraint=eastwest;" parent="WIyWlLk6GJQsqaUBKTNV-1" vertex="1">
          <mxGeometry x="80" y="280" width="310" height="30" as="geometry" />
        </mxCell>
        <mxCell id="2CGqayd7jsH6TsEi3nI5-17" value="" style="shape=partialRectangle;connectable=0;fillColor=none;top=0;left=0;bottom=0;right=0;fontStyle=1;overflow=hidden;" parent="2CGqayd7jsH6TsEi3nI5-16" vertex="1">
          <mxGeometry width="51.66666666666667" height="30" as="geometry" />
        </mxCell>
        <mxCell id="2CGqayd7jsH6TsEi3nI5-18" value="email (varchar(255) - not null - unique)" style="shape=partialRectangle;connectable=0;fillColor=none;top=0;left=0;bottom=0;right=0;align=left;spacingLeft=6;fontStyle=1;overflow=hidden;" parent="2CGqayd7jsH6TsEi3nI5-16" vertex="1">
          <mxGeometry x="35.769230769230774" width="274.2307692307692" height="30" as="geometry" />
        </mxCell>
        <mxCell id="2CGqayd7jsH6TsEi3nI5-19" value="" style="shape=partialRectangle;collapsible=0;dropTarget=0;pointerEvents=0;fillColor=none;top=0;left=0;bottom=1;right=0;points=[[0,0.5],[1,0.5]];portConstraint=eastwest;" parent="WIyWlLk6GJQsqaUBKTNV-1" vertex="1">
          <mxGeometry x="80" y="310" width="310" height="30" as="geometry" />
        </mxCell>
        <mxCell id="2CGqayd7jsH6TsEi3nI5-20" value="" style="shape=partialRectangle;connectable=0;fillColor=none;top=0;left=0;bottom=0;right=0;fontStyle=1;overflow=hidden;" parent="2CGqayd7jsH6TsEi3nI5-19" vertex="1">
          <mxGeometry width="51.66666666666667" height="30" as="geometry" />
        </mxCell>
        <mxCell id="2CGqayd7jsH6TsEi3nI5-21" value="password (char(60) - not null)" style="shape=partialRectangle;connectable=0;fillColor=none;top=0;left=0;bottom=0;right=0;align=left;spacingLeft=6;fontStyle=1;overflow=hidden;" parent="2CGqayd7jsH6TsEi3nI5-19" vertex="1">
          <mxGeometry x="35.769230769230774" width="274.2307692307692" height="30" as="geometry" />
        </mxCell>
        <mxCell id="2CGqayd7jsH6TsEi3nI5-25" value="" style="shape=partialRectangle;collapsible=0;dropTarget=0;pointerEvents=0;fillColor=none;top=0;left=0;bottom=1;right=0;points=[[0,0.5],[1,0.5]];portConstraint=eastwest;" parent="WIyWlLk6GJQsqaUBKTNV-1" vertex="1">
          <mxGeometry x="80" y="340" width="310" height="30" as="geometry" />
        </mxCell>
        <mxCell id="2CGqayd7jsH6TsEi3nI5-26" value="" style="shape=partialRectangle;connectable=0;fillColor=none;top=0;left=0;bottom=0;right=0;fontStyle=1;overflow=hidden;" parent="2CGqayd7jsH6TsEi3nI5-25" vertex="1">
          <mxGeometry width="51.66666666666667" height="30" as="geometry" />
        </mxCell>
        <mxCell id="2CGqayd7jsH6TsEi3nI5-27" value="create_at (datetime - default(currentDate))" style="shape=partialRectangle;connectable=0;fillColor=none;top=0;left=0;bottom=0;right=0;align=left;spacingLeft=6;fontStyle=1;overflow=hidden;" parent="2CGqayd7jsH6TsEi3nI5-25" vertex="1">
          <mxGeometry x="35.769230769230774" width="274.2307692307693" height="30" as="geometry" />
        </mxCell>
        <mxCell id="2CGqayd7jsH6TsEi3nI5-28" value="" style="shape=partialRectangle;collapsible=0;dropTarget=0;pointerEvents=0;fillColor=none;top=0;left=0;bottom=1;right=0;points=[[0,0.5],[1,0.5]];portConstraint=eastwest;" parent="WIyWlLk6GJQsqaUBKTNV-1" vertex="1">
          <mxGeometry x="80" y="370" width="310" height="30" as="geometry" />
        </mxCell>
        <mxCell id="2CGqayd7jsH6TsEi3nI5-29" value="" style="shape=partialRectangle;connectable=0;fillColor=none;top=0;left=0;bottom=0;right=0;fontStyle=1;overflow=hidden;" parent="2CGqayd7jsH6TsEi3nI5-28" vertex="1">
          <mxGeometry width="51.66666666666667" height="30" as="geometry" />
        </mxCell>
        <mxCell id="2CGqayd7jsH6TsEi3nI5-30" value="update_at (datetime - default(currentDate))" style="shape=partialRectangle;connectable=0;fillColor=none;top=0;left=0;bottom=0;right=0;align=left;spacingLeft=6;fontStyle=1;overflow=hidden;" parent="2CGqayd7jsH6TsEi3nI5-28" vertex="1">
          <mxGeometry x="35.769230769230774" width="274.2307692307693" height="30" as="geometry" />
        </mxCell>
        <mxCell id="2CGqayd7jsH6TsEi3nI5-47" value="" style="endArrow=none;html=1;exitX=0.111;exitY=0.988;exitDx=0;exitDy=0;exitPerimeter=0;" parent="WIyWlLk6GJQsqaUBKTNV-1" source="2CGqayd7jsH6TsEi3nI5-65" edge="1">
          <mxGeometry width="50" height="50" relative="1" as="geometry">
            <mxPoint x="500" y="415" as="sourcePoint" />
            <mxPoint x="500" y="216" as="targetPoint" />
          </mxGeometry>
        </mxCell>
        <mxCell id="2CGqayd7jsH6TsEi3nI5-53" value="&lt;b&gt;id_todo (id - auto increment - unsigned)&lt;/b&gt;" style="text;html=1;strokeColor=none;fillColor=none;align=center;verticalAlign=middle;whiteSpace=wrap;rounded=0;" parent="WIyWlLk6GJQsqaUBKTNV-1" vertex="1">
          <mxGeometry x="500" y="222" width="220" height="20" as="geometry" />
        </mxCell>
        <mxCell id="2CGqayd7jsH6TsEi3nI5-54" value="PK" style="text;html=1;strokeColor=none;fillColor=none;align=center;verticalAlign=middle;whiteSpace=wrap;rounded=0;fontStyle=1" parent="WIyWlLk6GJQsqaUBKTNV-1" vertex="1">
          <mxGeometry x="463" y="222" width="40" height="20" as="geometry" />
        </mxCell>
        <mxCell id="2CGqayd7jsH6TsEi3nI5-56" value="&lt;b&gt;id_user (id - auto increment - unsigned)&lt;/b&gt;" style="text;html=1;strokeColor=none;fillColor=none;align=center;verticalAlign=middle;whiteSpace=wrap;rounded=0;" parent="WIyWlLk6GJQsqaUBKTNV-1" vertex="1">
          <mxGeometry x="500" y="260" width="220" height="20" as="geometry" />
        </mxCell>
        <mxCell id="2CGqayd7jsH6TsEi3nI5-57" value="FK" style="text;html=1;strokeColor=none;fillColor=none;align=center;verticalAlign=middle;whiteSpace=wrap;rounded=0;fontStyle=1" parent="WIyWlLk6GJQsqaUBKTNV-1" vertex="1">
          <mxGeometry x="464" y="255" width="40" height="20" as="geometry" />
        </mxCell>
        <mxCell id="2CGqayd7jsH6TsEi3nI5-61" value="&lt;b&gt;description (varchar(255) - not null)&lt;/b&gt;" style="text;html=1;strokeColor=none;fillColor=none;align=center;verticalAlign=middle;whiteSpace=wrap;rounded=0;" parent="WIyWlLk6GJQsqaUBKTNV-1" vertex="1">
          <mxGeometry x="510" y="294" width="210" height="20" as="geometry" />
        </mxCell>
        <mxCell id="2CGqayd7jsH6TsEi3nI5-62" value="" style="shape=partialRectangle;collapsible=0;dropTarget=0;pointerEvents=0;fillColor=none;top=0;left=0;bottom=1;right=0;points=[[0,0.5],[1,0.5]];portConstraint=eastwest;" parent="WIyWlLk6GJQsqaUBKTNV-1" vertex="1">
          <mxGeometry x="470" y="329" width="260" height="41" as="geometry" />
        </mxCell>
        <mxCell id="2CGqayd7jsH6TsEi3nI5-63" value="" style="shape=partialRectangle;connectable=0;fillColor=none;top=0;left=0;bottom=0;right=0;fontStyle=1;overflow=hidden;" parent="2CGqayd7jsH6TsEi3nI5-62" vertex="1">
          <mxGeometry width="43.333333333333336" height="41" as="geometry" />
        </mxCell>
        <mxCell id="2CGqayd7jsH6TsEi3nI5-64" value="create_at (datetime - default&#xa;(currentDate))" style="shape=partialRectangle;connectable=0;fillColor=none;top=0;left=0;bottom=0;right=0;align=left;spacingLeft=6;fontStyle=1;overflow=hidden;" parent="2CGqayd7jsH6TsEi3nI5-62" vertex="1">
          <mxGeometry x="30.000000000000004" width="230.00000000000006" height="41" as="geometry" />
        </mxCell>
        <mxCell id="2CGqayd7jsH6TsEi3nI5-65" value="" style="shape=partialRectangle;collapsible=0;dropTarget=0;pointerEvents=0;fillColor=none;top=0;left=0;bottom=1;right=0;points=[[0,0.5],[1,0.5]];portConstraint=eastwest;" parent="WIyWlLk6GJQsqaUBKTNV-1" vertex="1">
          <mxGeometry x="470" y="371" width="260" height="40" as="geometry" />
        </mxCell>
        <mxCell id="2CGqayd7jsH6TsEi3nI5-66" value="" style="shape=partialRectangle;connectable=0;fillColor=none;top=0;left=0;bottom=0;right=0;fontStyle=1;overflow=hidden;" parent="2CGqayd7jsH6TsEi3nI5-65" vertex="1">
          <mxGeometry width="43.333333333333336" height="40" as="geometry" />
        </mxCell>
        <mxCell id="2CGqayd7jsH6TsEi3nI5-67" value="update_at (datetime - default&#xa;(currentDate))" style="shape=partialRectangle;connectable=0;fillColor=none;top=0;left=0;bottom=0;right=0;align=left;spacingLeft=6;fontStyle=1;overflow=hidden;" parent="2CGqayd7jsH6TsEi3nI5-65" vertex="1">
          <mxGeometry x="30.000000000000004" width="230.00000000000006" height="40" as="geometry" />
        </mxCell>
        <mxCell id="2CGqayd7jsH6TsEi3nI5-72" value="Text" style="text;html=1;strokeColor=none;fillColor=none;align=center;verticalAlign=middle;whiteSpace=wrap;rounded=0;" parent="WIyWlLk6GJQsqaUBKTNV-1" vertex="1">
          <mxGeometry x="490" y="310" width="40" height="20" as="geometry" />
        </mxCell>
        <mxCell id="2CGqayd7jsH6TsEi3nI5-78" value="" style="edgeStyle=entityRelationEdgeStyle;fontSize=12;html=1;endArrow=ERoneToMany;startArrow=ERmandOne;exitX=1;exitY=0.5;exitDx=0;exitDy=0;" parent="WIyWlLk6GJQsqaUBKTNV-1" source="2CGqayd7jsH6TsEi3nI5-1" edge="1">
          <mxGeometry width="100" height="100" relative="1" as="geometry">
            <mxPoint x="360" y="300" as="sourcePoint" />
            <mxPoint x="470" y="275" as="targetPoint" />
          </mxGeometry>
        </mxCell>
        <mxCell id="2CGqayd7jsH6TsEi3nI5-79" value="" style="shape=cylinder3;whiteSpace=wrap;html=1;boundedLbl=1;backgroundOutline=1;size=15;" parent="WIyWlLk6GJQsqaUBKTNV-1" vertex="1">
          <mxGeometry x="400" y="50" width="60" height="80" as="geometry" />
        </mxCell>
        <mxCell id="2CGqayd7jsH6TsEi3nI5-80" value="crud-neumorfico" style="text;html=1;strokeColor=none;fillColor=none;align=center;verticalAlign=middle;whiteSpace=wrap;rounded=0;" parent="WIyWlLk6GJQsqaUBKTNV-1" vertex="1">
          <mxGeometry x="400" y="90" width="60" height="20" as="geometry" />
        </mxCell>
      </root>
    </mxGraphModel>
  </diagram>
</mxfile>
